<?xml version="1.0" standalone="no"?>
<!DOCTYPE svg PUBLIC "-//W3C//DTD SVG 20010904//EN"
 "http://www.w3.org/TR/2001/REC-SVG-20010904/DTD/svg10.dtd">
<svg version="1.0" xmlns="http://www.w3.org/2000/svg"
 width="576.000000pt" height="576.000000pt" viewBox="0 0 576.000000 576.000000"
 preserveAspectRatio="xMidYMid meet">
<metadata>
Created by potrace 1.14, written by Peter Selinger 2001-2017
</metadata>
<g transform="translate(0.000000,576.000000) scale(0.100000,-0.100000)"
fill="#000000" stroke="none">
<path d="M557 5365 c-2 -5 -3 -1214 -3 -2685 l1 -2675 285 0 285 0 1 840 c1
462 2 845 3 850 0 7 272 10 789 11 710 0 986 5 1046 19 12 3 26 2 32 -2 11 -8
158 -209 179 -245 12 -20 285 -404 300 -421 6 -7 30 -41 55 -77 24 -36 48 -69
52 -75 49 -61 105 -145 100 -149 -3 -3 -1 -6 5 -6 5 0 27 -27 49 -60 21 -33
42 -60 47 -60 4 0 7 -6 7 -14 0 -8 3 -16 8 -18 4 -1 27 -32 52 -68 24 -36 52
-74 62 -84 10 -11 20 -28 24 -38 3 -10 9 -18 12 -18 4 0 16 -16 26 -35 11 -19
23 -35 28 -35 4 0 8 -4 8 -10 0 -5 16 -31 36 -57 59 -79 67 -90 124 -173 l55
-80 308 0 c170 0 307 3 305 8 -24 48 -32 62 -40 62 -4 0 -8 6 -8 14 0 8 -4 16
-8 18 -7 3 -105 136 -209 286 -26 37 -51 72 -55 77 -5 6 -35 48 -68 95 -82
115 -80 112 -157 220 -37 52 -76 106 -85 120 -22 31 -112 158 -132 185 -8 11
-76 106 -150 210 -74 105 -138 195 -143 200 -5 6 -33 46 -63 90 -30 44 -57 82
-61 85 -3 3 -21 28 -39 55 -19 28 -37 52 -42 53 -4 2 -8 8 -8 14 0 5 -7 16
-15 24 -8 9 -15 18 -15 22 0 4 43 23 96 42 119 43 327 145 362 178 7 6 17 12
22 12 5 0 15 6 22 13 7 6 29 23 49 37 291 201 520 541 614 910 18 71 19 74 30
140 8 47 9 57 21 185 12 132 6 403 -12 488 -2 12 -7 38 -10 57 -7 44 -11 68
-19 100 -3 14 -8 35 -11 48 -12 59 -90 279 -104 292 -3 3 -13 23 -23 45 -29
62 -110 195 -119 195 -4 0 -8 7 -8 15 0 8 -4 15 -8 15 -4 0 -16 14 -27 32 -21
36 -201 219 -253 258 -18 14 -43 33 -55 44 -27 22 -160 109 -167 109 -3 -1
-16 7 -30 17 -36 25 -174 93 -245 119 -33 13 -69 27 -80 31 -87 36 -361 104
-465 116 -19 2 -46 6 -59 9 -24 4 -97 12 -211 22 -120 10 -2290 8 -2293 -2z
m2223 -489 c108 -8 156 -14 200 -21 19 -3 49 -8 65 -10 17 -2 41 -7 55 -10 14
-3 37 -7 51 -10 88 -16 367 -118 409 -149 8 -6 31 -20 50 -30 99 -55 237 -170
314 -264 87 -108 192 -302 210 -392 3 -14 12 -50 20 -81 35 -131 49 -373 32
-558 -7 -82 -59 -308 -77 -340 -11 -19 -26 -62 -27 -75 0 -5 -4 -12 -9 -15 -4
-3 -21 -31 -37 -61 -33 -63 -116 -180 -128 -180 -4 0 -8 -4 -8 -10 0 -11 -93
-101 -155 -150 -55 -44 -186 -126 -197 -123 -4 2 -8 0 -8 -5 0 -4 -12 -12 -27
-19 -16 -6 -54 -23 -85 -37 -32 -14 -58 -22 -58 -19 0 3 -6 1 -13 -5 -11 -9
-69 -27 -172 -54 -117 -29 -278 -53 -430 -63 -58 -4 -573 -6 -1280 -5 l-350 0
1 1343 c1 738 2 1344 3 1347 2 8 1552 4 1651 -4z"/>
</g>
</svg>
