<svg width="50" height="50" viewBox="0 0 50 50" fill="none" xmlns="http://www.w3.org/2000/svg">
<path d="M49.2188 25C49.2188 38.3789 38.3789 49.2188 25 49.2188C11.6211 49.2188 0.78125 38.3789 0.78125 25C0.78125 11.6211 11.6211 0.78125 25 0.78125C38.3789 0.78125 49.2188 11.6211 49.2188 25ZM35.1953 22.1777L28.125 29.5508V11.7188C28.125 10.4199 27.0801 9.375 25.7812 9.375H24.2188C22.9199 9.375 21.875 10.4199 21.875 11.7188V29.5508L14.8047 22.1777C13.8965 21.2305 12.3828 21.2109 11.4551 22.1387L10.3906 23.2129C9.47266 24.1309 9.47266 25.6152 10.3906 26.5234L23.3398 39.4824C24.2578 40.4004 25.7422 40.4004 26.6504 39.4824L39.6094 26.5234C40.5273 25.6055 40.5273 24.1211 39.6094 23.2129L38.5449 22.1387C37.6172 21.2109 36.1035 21.2305 35.1953 22.1777Z" fill="#F06543"/>
</svg>
