<svg width="50" height="50" viewBox="0 0 50 50" fill="none" xmlns="http://www.w3.org/2000/svg">
<g clip-path="url(#clip0_9_34)">
<path d="M0.78125 25C0.78125 11.6211 11.6211 0.78125 25 0.78125C38.3789 0.78125 49.2188 11.6211 49.2188 25C49.2188 38.3789 38.3789 49.2188 25 49.2188C11.6211 49.2187 0.78125 38.3789 0.78125 25ZM14.8047 27.8223L21.875 20.4492L21.875 38.2812C21.875 39.5801 22.9199 40.625 24.2188 40.625H25.7812C27.0801 40.625 28.125 39.5801 28.125 38.2812L28.125 20.4492L35.1953 27.8223C36.1035 28.7695 37.6172 28.7891 38.5449 27.8613L39.6094 26.7871C40.5273 25.8691 40.5273 24.3848 39.6094 23.4766L26.6602 10.5176C25.7422 9.59961 24.2578 9.59961 23.3496 10.5176L10.3906 23.4766C9.47266 24.3945 9.47266 25.8789 10.3906 26.7871L11.4551 27.8613C12.3828 28.7891 13.8965 28.7695 14.8047 27.8223Z" fill="#F06543"/>
</g>
<defs>
<clipPath id="clip0_9_34">
<rect width="50" height="50" fill="white" transform="translate(50 50) rotate(-180)"/>
</clipPath>
</defs>
</svg>
