<svg width="30" height="35" viewBox="0 0 30 35" fill="none" xmlns="http://www.w3.org/2000/svg">
<path d="M30 25.875C28.1237 25.875 27.9067 23.7188 25.0112 23.7188C22.1029 23.7188 21.8756 25.875 20.0056 25.875C18.151 25.875 17.8993 23.7188 15 23.7188C12.1311 23.7188 11.8381 25.875 10.0112 25.875C8.12625 25.875 7.92174 23.7188 5.00558 23.7188C2.08949 23.7188 1.8815 25.875 0 25.875V20.4844C0 18.6987 1.43973 17.25 3.21429 17.25H4.28571V7.54688H8.57143V17.25H12.8571V7.54688H17.1429V17.25H21.4286V7.54688H25.7143V17.25H26.7857C28.5603 17.25 30 18.6987 30 20.4844V25.875ZM30 34.5H0V28.0312C2.9033 28.0312 3.13172 25.875 5.00558 25.875C6.8773 25.875 7.09841 28.0312 10.0112 28.0312C12.8801 28.0312 13.173 25.875 15 25.875C16.8849 25.875 17.0894 28.0312 20.0056 28.0312C22.909 28.0312 23.1373 25.875 25.0112 25.875C26.8519 25.875 27.1039 28.0312 30 28.0312V34.5ZM6.42857 6.46875C5.23996 6.46875 4.28571 5.50854 4.28571 4.3125C4.28571 2.22363 6.42857 2.7627 6.42857 0C7.23214 0 8.57143 1.98779 8.57143 3.77344C8.57143 5.55908 7.61719 6.46875 6.42857 6.46875ZM15 6.46875C13.8114 6.46875 12.8571 5.50854 12.8571 4.3125C12.8571 2.22363 15 2.7627 15 0C15.8036 0 17.1429 1.98779 17.1429 3.77344C17.1429 5.55908 16.1886 6.46875 15 6.46875ZM23.5714 6.46875C22.3828 6.46875 21.4286 5.50854 21.4286 4.3125C21.4286 2.22363 23.5714 2.7627 23.5714 0C24.375 0 25.7143 1.98779 25.7143 3.77344C25.7143 5.55908 24.76 6.46875 23.5714 6.46875Z" fill="#E8E9EB"/>
</svg>
