<svg width="30" height="24" viewBox="0 0 30 24" fill="none" xmlns="http://www.w3.org/2000/svg">
<path d="M9 7.5C9 8.32969 8.32969 9 7.5 9C6.67031 9 6 8.32969 6 7.5V6C6 3.51469 7.97344 1.5 10.5 1.5C12.9844 1.5 15 3.51469 15 6V6.36563C15 7.34063 14.9437 8.31563 14.8312 9.28594L20.5687 7.56094C21.1031 7.40156 21.6844 7.55156 22.0359 7.95469C22.4672 8.35781 22.5984 8.94375 22.425 9.47344L21.5812 11.9578H25.5C26.3297 11.9578 27 12.6703 27 13.4578C27 14.3297 26.3297 14.9578 25.5 14.9578H19.5C19.0172 14.9578 18.5672 14.7703 18.2812 14.3766C18 13.9875 17.925 13.4812 18.075 13.0266L18.6609 11.2687L14.2359 12.5953C13.6828 15.0703 12.7594 17.4469 11.4984 19.65L10.8469 20.7891C10.2422 21.8484 9.11719 22.5 7.89844 22.5C6.02344 22.5 4.45781 20.9766 4.45781 19.1016V15.7313C4.45781 13.7438 5.80312 11.9906 7.70625 11.4234L11.6625 10.2328C11.8875 8.95781 11.9578 7.66406 11.9578 6.36563V6C11.9578 5.17031 11.3297 4.5 10.4578 4.5C9.67031 4.5 8.95781 5.17031 8.95781 6L9 7.5ZM7.5 15.7313V19.1016C7.5 19.3219 7.67813 19.5 7.89844 19.5C8.03906 19.5 8.175 19.425 8.24531 19.2984L8.89688 18.1594C9.71719 16.7156 10.3781 15.1922 10.8656 13.6078L8.56875 14.2547C7.93594 14.4844 7.5 15.0703 7.5 15.7313ZM1.125 17.25H3V19.1016C3 19.2375 3.00516 19.3688 3.01594 19.5H1.125C0.503906 19.5 0 18.9984 0 18.375C0 17.7516 0.503906 17.25 1.125 17.25ZM28.875 19.5H13.2891C13.6734 18.7641 14.025 18.0141 14.3391 17.25H28.875C29.4984 17.25 30 17.7516 30 18.375C30 18.9984 29.4984 19.5 28.875 19.5Z" fill="#E5E5E5"/>
</svg>
