<svg width="30" height="30" viewBox="0 0 30 30" fill="none" xmlns="http://www.w3.org/2000/svg">
<g clip-path="url(#clip0_301_2)">
<path d="M29.9531 22.6758L28.5908 28.582C28.3995 29.417 27.6656 30.0012 26.8061 30.0012C12.0234 30 0 17.9766 0 3.19337C0 2.33438 0.584121 1.59962 1.41914 1.40919L7.32539 0.0468842C8.18555 -0.152452 9.06445 0.294033 9.42188 1.1086L12.1477 7.46602C12.4663 8.21485 12.2514 9.08731 11.6215 9.60177L8.4668 12.1348C10.4578 16.1906 13.7555 19.4883 17.8125 21.4805L20.3953 18.3281C20.9044 17.6965 21.7834 17.4779 22.5322 17.8023L28.8896 20.5275C29.6543 20.9297 30.1523 21.8203 29.9531 22.6758Z" fill="#E5E5E5"/>
</g>
<defs>
<clipPath id="clip0_301_2">
<rect width="30" height="30" fill="white"/>
</clipPath>
</defs>
</svg>
